<?xml version="1.0" encoding="UTF-8"?>
<svg version="1.1" xmlns="http://www.w3.org/2000/svg" width="512" height="512">
<path d="M0 0 C0.92103516 0.1556543 1.84207031 0.31130859 2.79101562 0.47167969 C29.25164136 5.11665989 54.28120246 14.55012944 78 27 C79.04945801 27.54454834 79.04945801 27.54454834 80.12011719 28.10009766 C95.98858582 36.42338676 110.66410685 47.07851976 124 59 C124.83273437 59.72316406 125.66546875 60.44632813 126.5234375 61.19140625 C137.60627894 70.92924266 147.95084156 81.33922782 157 93 C157.763125 93.93457031 158.52625 94.86914062 159.3125 95.83203125 C183.29392367 125.77037906 199.25407656 162.04462144 207.375 199.375 C207.73295654 201.01166626 207.73295654 201.01166626 208.09814453 202.68139648 C211.36099967 218.52735929 212.35274562 234.22591685 212.31567383 250.37548828 C212.3125179 253.23378882 212.33607578 256.09104516 212.36132812 258.94921875 C212.40670177 272.18279805 211.16895966 284.95116546 209 298 C208.71781616 299.70663818 208.71781616 299.70663818 208.42993164 301.44775391 C207.96345212 304.04264583 207.44477789 306.61348988 206.875 309.1875 C206.67036133 310.11344971 206.46572266 311.03939941 206.25488281 311.9934082 C201.74427421 331.39192074 194.82923776 350.16549979 186 368 C185.6611377 368.68481445 185.32227539 369.36962891 184.97314453 370.07519531 C173.99290778 391.97136289 159.54336454 411.88834728 142.48510742 429.41772461 C141.03009088 430.96794033 139.67272326 432.56459968 138.328125 434.2109375 C136.41238327 436.50597038 134.58979028 438.40076174 132.3125 440.3125 C130.12801456 442.16588043 127.97771469 444.02104494 125.89453125 445.98828125 C84.84228645 484.63815717 24.32813446 508.92572646 -32.046875 509.203125 C-32.97937073 509.20882507 -33.91186646 509.21452515 -34.87261963 509.22039795 C-36.83905935 509.22978439 -38.80551435 509.2363564 -40.77197266 509.24023438 C-43.7011466 509.2498398 -46.62958674 509.28088313 -49.55859375 509.3125 C-62.93557076 509.38752464 -75.81068295 508.20598791 -89 506 C-90.13711426 505.81179688 -91.27422852 505.62359375 -92.44580078 505.4296875 C-151.74536177 494.78217734 -209.53318535 460.29052588 -246 412 C-246.47083008 411.38382812 -246.94166016 410.76765625 -247.42675781 410.1328125 C-278.81025318 368.84186207 -299.91303037 317.04897891 -300.203125 264.64453125 C-300.21013931 263.7884729 -300.21715363 262.93241455 -300.22438049 262.05041504 C-300.24177398 259.30438908 -300.24823257 256.55857902 -300.25 253.8125 C-300.25067474 252.87248138 -300.25134949 251.93246277 -300.25204468 250.96395874 C-300.23584307 236.75575628 -299.68529265 222.98612345 -297 209 C-296.8443457 208.11602539 -296.68869141 207.23205078 -296.52832031 206.32128906 C-291.81176549 179.80125923 -282.50271099 154.78641899 -270 131 C-269.62633301 130.28440918 -269.25266602 129.56881836 -268.86767578 128.83154297 C-257.68695053 107.68503963 -242.5369934 89.13435619 -226 72 C-225.10023438 71.05898437 -224.20046875 70.11796875 -223.2734375 69.1484375 C-217.54542689 63.27495361 -211.44817758 58.06456053 -205 53 C-204.01386719 52.20851562 -203.02773437 51.41703125 -202.01171875 50.6015625 C-167.19663692 23.11368968 -125.68850167 5.94985113 -82 -1 C-81.2889209 -1.11859375 -80.5778418 -1.2371875 -79.84521484 -1.359375 C-54.09784858 -5.47601315 -25.58047375 -4.45382289 0 0 Z " fill="#6D45CE" transform="translate(300,3)"/>
<path d="M0 0 C17.2916584 -0.03094437 34.5833176 -0.05109725 51.875 -0.0625 C53.1638422 -0.06335602 54.4526844 -0.06421204 55.78058243 -0.06509399 C105.52924172 -0.09424659 155.25406263 0.34220248 205 1 C205 40.6 205 80.2 205 121 C200.62018661 119.5400622 197.24563485 118.20496254 193.2734375 116.05078125 C192.17169189 115.45668457 191.06994629 114.86258789 189.93481445 114.25048828 C188.74815914 113.60458494 187.56155554 112.9585866 186.375 112.3125 C185.14633665 111.64779545 183.9174097 110.98357793 182.68823242 110.31982422 C180.77039111 109.28395128 178.85282534 108.2475902 176.93626404 107.20935059 C172.28810666 104.69160319 167.62952937 102.19400866 162.96484375 99.70703125 C162.31872131 99.36229263 161.67259888 99.01755402 161.00689697 98.66236877 C158.48661756 97.31768926 155.96632408 95.97304312 153.44476318 94.63076782 C151.7083767 93.70603998 149.97329518 92.77886302 148.23828125 91.8515625 C147.24868408 91.32385254 146.25908691 90.79614258 145.23950195 90.25244141 C143 89 143 89 142 88 C141.90653085 86.34261557 141.88255023 84.68125356 141.88647461 83.02124023 C141.88655014 81.96021591 141.88662567 80.89919159 141.88670349 79.80601501 C141.89186478 78.651866 141.89702606 77.49771698 141.90234375 76.30859375 C141.90446617 74.5461306 141.90446617 74.5461306 141.90663147 72.74806213 C141.91225008 68.97784936 141.92480574 65.20769496 141.9375 61.4375 C141.9425126 58.88867273 141.94707592 56.33984453 141.95117188 53.79101562 C141.96222556 47.52732367 141.97898179 41.26366601 142 35 C141.0362999 35.02886795 140.07259979 35.0577359 139.07969666 35.08747864 C129.8900062 35.35378338 120.70112108 35.54717568 111.50841427 35.67355824 C106.78462449 35.74072852 102.06400561 35.83142507 97.34204102 35.98071289 C58.19566127 37.18589399 58.19566127 37.18589399 40.26722717 23.61927795 C36.49718938 20.92667654 32.38975029 18.9316518 28.25 16.875 C21.51295857 13.3837002 14.88655736 9.7270044 8.3125 5.9375 C7.47944336 5.45974121 6.64638672 4.98198242 5.78808594 4.48974609 C5.02915039 4.04840332 4.27021484 3.60706055 3.48828125 3.15234375 C2.81321533 2.76038818 2.13814941 2.36843262 1.44262695 1.96459961 C0.96656006 1.64628174 0.49049316 1.32796387 0 1 C0 0.67 0 0.34 0 0 Z " fill="#FCFBFD" transform="translate(161,263)"/>
<path d="M0 0 C3.70400131 1.48160052 7.09625824 3.01068662 10.62109375 4.8359375 C11.71131836 5.40006348 12.80154297 5.96418945 13.92480469 6.54541016 C15.08399414 7.1491748 16.24318359 7.75293945 17.4375 8.375 C18.03115356 8.68346863 18.62480713 8.99193726 19.2364502 9.30975342 C33.29723557 16.61847474 47.24055284 24.13745877 61 32 C61 49.82 61 67.64 61 86 C66.63835937 85.88398438 72.27671875 85.76796875 78.0859375 85.6484375 C81.69543022 85.59723577 85.30446428 85.54909264 88.9140625 85.51171875 C94.62205994 85.45233409 100.32842763 85.38272409 106.03515625 85.24560547 C110.64543882 85.13554712 115.25397055 85.07687261 119.86546707 85.05122757 C121.60925442 85.03299562 123.35296479 84.99740326 125.09598923 84.94269943 C138.34608798 84.54405712 147.01217069 87.59164857 158.11132431 94.79795933 C160.79383131 96.50523101 163.56404904 97.98344614 166.375 99.46875 C167.30892578 99.97253174 168.24285156 100.47631348 169.20507812 100.99536133 C170.58856445 101.74015747 170.58856445 101.74015747 172 102.5 C182.04378254 107.92257409 192.03840755 113.42804867 202 119 C202 119.33 202 119.66 202 120 C135.34 120 68.68 120 0 120 C0 80.4 0 40.8 0 0 Z " fill="#FDFDFE" transform="translate(146,128)"/>
<path d="M0 0 C3.74197039 1.4383767 7.30833543 3.09350141 10.8918457 4.88916016 C12.06880005 5.47769775 13.24575439 6.06623535 14.45837402 6.67260742 C15.6975365 7.29470586 16.93667247 7.9168571 18.17578125 8.5390625 C19.31092163 9.10713623 20.44606201 9.67520996 21.61560059 10.26049805 C25.84899723 12.37980914 30.08064442 14.50261337 34.3125 16.625 C43.779375 21.36875 53.24625 26.1125 63 31 C63 57.73 63 84.46 63 112 C59.54005659 111.13501415 57.45032485 110.27722007 54.421875 108.55078125 C53.51993408 108.03918457 52.61799316 107.52758789 51.6887207 107.00048828 C50.23405396 106.16493408 50.23405396 106.16493408 48.75 105.3125 C47.74090576 104.73741699 46.73181152 104.16233398 45.69213867 103.56982422 C23.52539577 90.90555685 23.52539577 90.90555685 15.02339172 85.70480347 C12.0492532 83.93675467 12.0492532 83.93675467 8.86802673 82.76374817 C5.28279672 81.19788938 2.79264424 79.75902486 0 77 C-1.70482538 71.1557757 -1.40329632 65.50900497 -1.171875 59.47265625 C-1.14947213 57.7563624 -1.13240062 56.0399914 -1.12042236 54.32359314 C-1.07476202 49.82190259 -0.95705753 45.32491458 -0.82397461 40.82507324 C-0.70085347 36.22712841 -0.64633624 31.62841758 -0.5859375 27.02929688 C-0.457526 18.01747317 -0.25293948 9.00912864 0 0 Z " fill="#FCFCFE" transform="translate(303,128)"/>
<path d="M0 0 C4.54511495 1.51503832 7.60429293 2.76742601 11.578125 5.16796875 C12.64490479 5.80726318 13.71168457 6.44655762 14.81079102 7.10522461 C15.37146271 7.44472137 15.9321344 7.78421814 16.50979614 8.13400269 C19.49282075 9.9398879 22.48738643 11.72647733 25.48046875 13.515625 C26.09595078 13.88421127 26.7114328 14.25279755 27.3455658 14.6325531 C34.04393324 18.63792797 40.79841791 22.54445403 47.5625 26.4375 C48.67979492 27.08162842 49.79708984 27.72575684 50.94824219 28.3894043 C55.92061658 31.29338133 55.92061658 31.29338133 61 34 C61 58.75 61 83.5 61 109 C56.1858241 107.3952747 51.92594013 105.57254199 47.4609375 103.25390625 C46.37952988 102.69799049 46.37952988 102.69799049 45.27627563 102.13084412 C43.74724962 101.34360132 42.21930563 100.55425384 40.69238281 99.76293945 C38.43300964 98.59254988 36.16999479 97.42948486 33.90625 96.26757812 C22.48270234 90.37267117 11.27296083 84.20012846 0 78 C0 52.26 0 26.52 0 0 Z " fill="#FDFCFE" transform="translate(146,273)"/>
</svg>
